<?xml version="1.0" encoding="UTF-8" standalone="no"?>
<!-- Created with Inkscape (http://www.inkscape.org/) -->

<svg
   xmlns:dc="http://purl.org/dc/elements/1.1/"
   xmlns:cc="http://creativecommons.org/ns#"
   xmlns:rdf="http://www.w3.org/1999/02/22-rdf-syntax-ns#"
   xmlns:svg="http://www.w3.org/2000/svg"
   xmlns="http://www.w3.org/2000/svg"
   xmlns:inkscape="http://www.inkscape.org/namespaces/inkscape"
   version="1.1"
   width="795"
   height="356"
   id="svg2">
  <defs
     id="defs4">
    <inkscape:path-effect
       effect="skeletal"
       id="path-effect3829" />
    <inkscape:path-effect
       effect="skeletal"
       id="path-effect3055" />
  </defs>
  <metadata
     id="metadata7">
    <rdf:RDF>
      <cc:Work
         rdf:about="">
        <dc:format>image/svg+xml</dc:format>
        <dc:type
           rdf:resource="http://purl.org/dc/dcmitype/StillImage" />
        <dc:title></dc:title>
      </cc:Work>
    </rdf:RDF>
  </metadata>
  <g
     id="layer2"
     style="display:inline">
    <path
       d="m 450.7717,176.53114 c 64.05736,-33.55378 65.10632,-88.55342 91.38023,-55.8199 48.82172,32.11871 95.82396,29.72031 131.21502,43.11978 34.19247,12.41578 100.49202,25.15113 102.85947,37.54185 2.82846,17.34866 -58.42219,39.77924 -144.27095,43.46021 -180.59561,7.94295 -238.73929,-2.43528 -381.21896,-25.61121 -27.57759,1.58314 -20.20013,-0.32258 -20.02222,-1.74997 50.26251,-83.07628 147.81877,-40.28775 220.05741,-40.94076 z"
       id="path3053"
       style="fill:none;stroke:#000000;stroke-opacity:1" />
  </g>
  <g
     id="layer3"
     style="display:inline">
    <path
       d="m 252.285,219.25516 c 76.73912,12.64697 140.20747,22.04276 204.64137,25.73021 80.87414,4.6283 193.91168,6.67102 278.75612,-16.51963 57.38173,-15.81659 36.20741,-33.80629 36.20741,-33.80629 0,0 14.63963,11.85347 19.16073,30.01331 2.11991,8.51503 11.83637,59.4395 -9.48885,71.77668 -11.99746,11.71054 -53.44721,30.97698 -116.07546,41.17977 C 542.07959,354.68243 447.25081,349.92641 322.50006,322.14335 136.00692,272.86387 20.653175,272.21741 2.9673158,245.43792 -1.6772127,213.91621 1.0290997,188.23556 3.5218113,158.91904 18.676588,183.65219 150.76728,200.3928 229.8085,217.61597 c -1.43281,2.84203 5.27288,2.00203 22.4765,1.63919 z"
       id="path3827"
       style="fill:none;stroke:#000000;stroke-opacity:1" />
  </g>
</svg>
